<svg class="{{ with .class }}{{ . }} {{ end }}icon icon-category" fill="none" height="68" viewBox="0 0 184 68" width="184" xmlns="http://www.w3.org/2000/svg"><rect fill="#fddc48" height="47" rx="9" width="182" x="1" y="11"/><g stroke-width="1.5"><path d="m24.9312 24.2374-.3942 1.0203h1.0938 14.9077 1.0938l-.3942-1.0203-1.3553-3.5077-.1853-.4797h-.5143-12.1972-.5142l-.1854.4797z" fill="#fff" stroke="#000"/><path d="m41.4154 26.7-3.5077 22.8" stroke="#f69935"/><path d="m28.2615 49.5-3.9461-23.2385h17.9769l-3.5077 23.2385z" stroke="#000"/><path d="m25.1923 42.0462-1.7538-9.6462h19.7307l-1.7538 9.6462z" fill="#fff" stroke="#000"/><path d="m23 26.2615v-2.6307h20.1692v2.6307z" fill="#fff" stroke="#000"/></g><path d="m55.5361 40v-9.9531h3.4864c1.2076 0 2.1237.2324 2.748.6972.6244.4603.9365 1.1371.9365 2.0303 0 .4876-.1253.9183-.3759 1.292-.2507.3691-.5993.6403-1.0459.8135.5104.1276.9114.3851 1.2031.7724.2962.3874.4443.8614.4443 1.4219 0 .957-.3053 1.6817-.916 2.1738-.6107.4922-1.4811.7429-2.6113.752zm2.0508-4.334v2.6865h1.7569c.483 0 .859-.1139 1.1279-.3418.2734-.2324.4101-.5514.4101-.957 0-.9114-.4716-1.374-1.415-1.3877zm0-1.4492h1.5176c1.0345-.0182 1.5517-.4307 1.5517-1.2373 0-.4512-.1321-.7747-.3964-.9707-.2598-.2005-.6722-.3008-1.2373-.3008h-1.4356zm11.1904 5.0312c-.4876.5925-1.1621.8887-2.0234.8887-.793 0-1.3991-.2278-1.8184-.6836-.4147-.4557-.6266-1.1233-.6357-2.0029v-4.8467h1.9756v4.7783c0 .7702.3509 1.1553 1.0527 1.1553.6699 0 1.1302-.2324 1.3809-.6973v-5.2363h1.9824v7.3965h-1.8594zm6.1661-2.0439 1.3671-4.6006h2.1192l-2.9736 8.5449-.1641.3897c-.4421.9661-1.1712 1.4492-2.1875 1.4492-.2871 0-.5788-.0433-.875-.1299v-1.497l.3008.0068c.3737 0 .6517-.057.834-.1709.1868-.1139.3326-.3031.4375-.5674l.2324-.6084-2.5908-7.417h2.1259zm9.6045-4.6006.0615.8272c.5241-.6426 1.2327-.9639 2.126-.9639.9524 0 1.6064.376 1.9619 1.1279.5195-.7519 1.2601-1.1279 2.2216-1.1279.8021 0 1.3991.2347 1.7911.7041.3919.4648.5879 1.1667.5879 2.1055v4.7236h-1.9825v-4.7168c0-.4193-.082-.7246-.2461-.916-.164-.196-.4534-.294-.8681-.294-.5925 0-1.0026.2826-1.2305.8477l.0068 5.0791h-1.9755v-4.71c0-.4283-.0844-.7382-.253-.9296-.1686-.1915-.4557-.2872-.8613-.2872-.5606 0-.9662.2325-1.2168.6973v5.2295h-1.9756v-7.3965zm13.6787 7.5332c-1.0847 0-1.9688-.3327-2.6524-.998-.679-.6654-1.0185-1.5518-1.0185-2.6592v-.1914c0-.7429.1435-1.4059.4306-1.9893.2871-.5879.6927-1.039 1.2168-1.3535.5287-.319 1.1302-.4785 1.8047-.4785 1.0117 0 1.807.319 2.3862.957.583.638.875 1.5427.875 2.7139v.8066h-4.7104c.0638.4831.2552.8705.5742 1.1621.3236.2917.7315.4375 1.2236.4375.7611 0 1.3558-.2757 1.7846-.8271l.97 1.0869c-.296.4193-.697.7474-1.2028.9844-.5059.2324-1.0664.3486-1.6816.3486zm-.2256-6.0703c-.392 0-.711.1322-.9571.3965-.2415.2643-.3964.6426-.4648 1.1348h2.748v-.1573c-.0091-.4375-.1276-.7747-.3554-1.0117-.2279-.2415-.5515-.3623-.9707-.3623zm12.168 5.9336c-.091-.1777-.157-.3988-.198-.6631-.479.5332-1.101.7998-1.867.7998-.724 0-1.326-.2096-1.804-.6289-.474-.4193-.711-.9479-.711-1.5859 0-.7839.289-1.3854.868-1.8047.583-.4193 1.424-.6312 2.522-.6358h.91v-.4238c0-.3418-.089-.6152-.267-.8203-.173-.2051-.449-.3076-.827-.3076-.333 0-.595.0797-.786.2392-.187.1596-.28.3783-.28.6563h-1.976c0-.4284.132-.8249.396-1.1895.265-.3645.638-.6494 1.122-.8545.483-.2096 1.025-.3144 1.626-.3144.912 0 1.634.2301 2.167.6904.538.4558.807 1.0983.807 1.9278v3.206c.005.7018.103 1.2328.294 1.5928v.1162zm-1.634-1.374c.292 0 .561-.0638.807-.1914.246-.1322.428-.3076.547-.5264v-1.2715h-.739c-.989 0-1.515.3418-1.579 1.0254l-.007.1162c0 .2461.087.4489.26.6084s.41.2393.711.2393zm11.416-.0821c.365 0 .661-.1002.889-.3007.228-.2006.346-.4672.355-.7998h1.853c-.005.5013-.141.9615-.41 1.3808-.269.4147-.638.7383-1.108.9707-.465.2279-.98.3418-1.545.3418-1.057 0-1.891-.3349-2.502-1.0049-.61-.6744-.916-1.6041-.916-2.789v-.1299c0-1.1393.303-2.0485.91-2.7275.606-.6791 1.437-1.0186 2.495-1.0186.925 0 1.665.2643 2.221.793.561.5241.846 1.2236.855 2.0986h-1.853c-.009-.3828-.127-.6927-.355-.9297-.228-.2415-.529-.3623-.902-.3623-.461 0-.809.1686-1.046.5059-.233.3326-.349.875-.349 1.6269v.2051c0 .7611.116 1.3079.349 1.6406.232.3327.585.499 1.059.499zm3.917-2.3105c0-.7337.141-1.3877.424-1.9619s.688-1.0186 1.217-1.333c.533-.3145 1.151-.4717 1.852-.4717.998 0 1.812.3053 2.441.916.633.6107.986 1.4401 1.059 2.4883l.014.5059c0 1.1347-.317 2.0462-.95 2.7343-.634.6836-1.484 1.0254-2.55 1.0254s-1.919-.3418-2.557-1.0254c-.633-.6836-.95-1.6133-.95-2.789zm1.976.1436c0 .7018.132 1.2395.396 1.6132.265.3692.643.5537 1.135.5537.479 0 .852-.1822 1.121-.5468.269-.3692.403-.9571.403-1.7637 0-.6882-.134-1.2214-.403-1.5996-.269-.3783-.647-.5674-1.135-.5674-.483 0-.856.1891-1.121.5674-.264.3737-.396.9547-.396 1.7432zm6.788 3.623v-5.9473h-1.101v-1.4492h1.101v-.6289c0-.8294.237-1.472.711-1.9277.478-.4603 1.146-.6905 2.003-.6905.273 0 .608.0456 1.005.1368l-.021 1.5312c-.164-.041-.365-.0615-.601-.0615-.743 0-1.115.3486-1.115 1.0459v.5947h1.47v1.4492h-1.47v5.9473zm5.017 0v-5.9473h-1.1v-1.4492h1.1v-.6289c0-.8294.237-1.472.711-1.9277.479-.4603 1.147-.6905 2.003-.6905.274 0 .609.0456 1.005.1368l-.02 1.5312c-.164-.041-.365-.0615-.602-.0615-.743 0-1.114.3486-1.114 1.0459v.5947h1.47v1.4492h-1.47v5.9473zm7.718.1367c-1.084 0-1.969-.3327-2.652-.998-.679-.6654-1.019-1.5518-1.019-2.6592v-.1914c0-.7429.144-1.4059.431-1.9893.287-.5879.693-1.039 1.217-1.3535.528-.319 1.13-.4785 1.804-.4785 1.012 0 1.807.319 2.386.957.584.638.875 1.5427.875 2.7139v.8066h-4.71c.064.4831.255.8705.574 1.1621.324.2917.732.4375 1.224.4375.761 0 1.356-.2757 1.784-.8271l.971 1.0869c-.296.4193-.697.7474-1.203.9844-.506.2324-1.067.3486-1.682.3486zm-.225-6.0703c-.392 0-.711.1322-.957.3965-.242.2643-.397.6426-.465 1.1348h2.748v-.1573c-.009-.4375-.128-.7747-.356-1.0117-.228-.2415-.551-.3623-.97-.3623zm7.799 6.0703c-1.084 0-1.968-.3327-2.652-.998-.679-.6654-1.018-1.5518-1.018-2.6592v-.1914c0-.7429.143-1.4059.43-1.9893.287-.5879.693-1.039 1.217-1.3535.529-.319 1.13-.4785 1.805-.4785 1.011 0 1.807.319 2.385.957.584.638.875 1.5427.875 2.7139v.8066h-4.71c.064.4831.256.8705.575 1.1621.323.2917.731.4375 1.223.4375.761 0 1.356-.2757 1.784-.8271l.971 1.0869c-.296.4193-.697.7474-1.203.9844-.506.2324-1.066.3486-1.682.3486zm-.225-6.0703c-.392 0-.711.1322-.957.3965-.242.2643-.397.6426-.465 1.1348h2.748v-.1573c-.009-.4375-.128-.7747-.355-1.0117-.228-.2415-.552-.3623-.971-.3623z" fill="#000"/><rect height="47" rx="9" stroke="#000" stroke-width="2" width="182" x="1" y="11"/></svg>