<svg class="{{ with .class }}{{ . }} {{ end }}icon icon-mail" width="24" height="24" viewBox="0 0 32 32">
<path fill="#E6E6E6" d="M28,26H4c-1.105,0-2-0.895-2-2V8c0-1.105,0.895-2,2-2h24c1.105,0,2,0.895,2,2v16C30,25.105,29.105,26,28,26z
	"/>
<path fill="#D44C40" d="M6,26H4c-1.105,0-2-0.895-2-2V8c0-1.105,0.895-2,2-2h0c1.105,0,2,0.895,2,2V26z"/>
<path fill="#EFEFEF" d="M28,6C28.646,6,29.279,6.313,29.664,6.891C30.277,7.81,16,17.404,16,17.404S1.723,7.81,2.336,6.891
	C2.719,6.316,3.348,6.004,3.99,6L28,6z"/>
<polygon fill="#CCCCCC" points="6,26 13.476,19.77 6,12.633 "/>
<path fill="#B3B3B3" d="M29.109,9.664L16,18.404l-0.491-0.328l-2.033,1.694L20,26h8c1.105,0,2-0.895,2-2V8.012
	C29.995,8.654,29.683,9.282,29.109,9.664z"/>
<polygon fill="#999999" points="6,11.737 6,12.633 13.476,19.77 15.509,18.076 "/>
<polygon fill="#C1453A" points="6,12.633 6,11.737 2.892,9.665 "/>
<path fill="#AD3E34" d="M26,26h2c1.105,0,2-0.895,2-2V8c0-1.105-0.895-2-2-2h0c-1.105,0-2,0.895-2,2V26z"/>
<path fill="#DE5040" d="M28,6l0.004,0c-0.383-0.001-0.771,0.107-1.113,0.335L16,13.596L6,6.93L5.975,6.913L5.12,6.343
	C4.8,6.126,4.415,6,4,6C2.895,6,2,6.895,2,8c0,0.001,0,0.003,0,0.004c0,0.001,0,0.003,0,0.004v0.004
	c0,0.016,0.005,0.031,0.006,0.047c0.004,0.135,0.021,0.266,0.05,0.393c0.01,0.042,0.026,0.081,0.038,0.123
	C2.125,8.677,2.161,8.776,2.207,8.87c0.022,0.045,0.047,0.089,0.072,0.133C2.331,9.092,2.39,9.175,2.455,9.255
	c0.03,0.037,0.058,0.075,0.091,0.111c0.104,0.11,0.216,0.211,0.342,0.296C2.889,9.662,2.89,9.663,2.891,9.664l0.001,0.001L6,11.737
	l9.509,6.339L16,18.404l13.109-8.74c0.574-0.383,0.886-1.01,0.891-1.652V8.008V8C30,6.895,29.105,6,28,6z"/>
</svg>
